<svg xmlns="http://www.w3.org/2000/svg" viewBox="0 0 440 270" role="img" aria-label="Зелёный желейный шарик на сырной платформе"><defs><linearGradient id="cheese" x2="0" y2="1"><stop stop-color="#ffe16a"/><stop offset="1" stop-color="#f2c942"/></linearGradient></defs><circle cx="390" cy="36" r="62" fill="#d9faed"/><circle cx="28" cy="88" r="42" fill="#d9faed"/><path d="M0 175H440V270H0Z" fill="url(#cheese)"/><path d="M0 266H440" stroke="#d9a631" stroke-width="8"/><circle cx="48" cy="232" r="25" fill="#e5b934" opacity=".5"/><circle cx="244" cy="209" r="21" fill="#e5b934" opacity=".5"/><circle cx="391" cy="248" r="36" fill="#e5b934" opacity=".5"/><ellipse cx="165" cy="177" rx="58" ry="8" fill="#195c3720"/><path d="M113 137C111 95 129 69 163 72C205 73 217 106 214 141C212 166 198 176 162 176C125 176 111 164 113 137Z" fill="#68d591" stroke="#27845b" stroke-width="5"/><ellipse cx="159" cy="111" rx="24" ry="25" fill="#fafff8" stroke="#409f71" stroke-width="3"/><circle cx="166" cy="113" r="13" fill="#204f3d"/><circle cx="171" cy="107" r="5" fill="white"/><path d="M160 145Q173 159 187 144" fill="none" stroke="#245b40" stroke-width="5" stroke-linecap="round"/><path d="M126 116Q125 103 130 96" fill="none" stroke="#aeefbd" stroke-width="7" stroke-linecap="round"/><circle cx="337" cy="158" r="18" fill="#549658" stroke="#32693e" stroke-width="3"/><circle cx="334" cy="152" r="9" fill="#fbfff7"/><circle cx="337" cy="153" r="5" fill="#224433"/><path d="M335 167Q343 171 347 165" fill="none" stroke="#224433" stroke-width="2.5" stroke-linecap="round"/><g transform="translate(285 78) rotate(-12)"><ellipse cx="0" cy="-6" rx="10" ry="5" fill="#fff9"/><ellipse cx="8" cy="-4" rx="9" ry="5" fill="#fff9"/><ellipse rx="11" ry="8" fill="#edc650"/><path d="M-4-7V7M2-8V8" stroke="#494928" stroke-width="3"/><circle cx="9" cy="-1" r="2" fill="#263e32"/></g></svg>